<svg xmlns="http://www.w3.org/2000/svg" viewBox="0 0 80 80" fill="none">
  <!-- Background Circle -->
  <circle cx="40" cy="40" r="37" fill="#13131A" stroke="#FFC66B" stroke-width="2.5"/>
  <!-- Owl Body - golden fluffy silhouette -->
  <path d="M40 12c-6 0-11 2-14.5 5.5C22 21 19 26 18 31c-1.5 6-.5 11 1.5 15 2.5 5 6.5 9 11 11.5 2.8 1.4 5.8 2.2 9.5 2.2s6.7-.8 9.5-2.2c4.5-2.5 8.5-6.5 11-11.5 2-4 3-9 1.5-15-1-5-4-10-7.5-13.5C51 14 46 12 40 12z" fill="#FFC66B"/>
  <!-- Feather texture hints -->
  <path d="M25 42c1-2 3-3.5 5-4" stroke="#13131A" stroke-width="0.7" opacity="0.3" stroke-linecap="round"/>
  <path d="M55 42c-1-2-3-3.5-5-4" stroke="#13131A" stroke-width="0.7" opacity="0.3" stroke-linecap="round"/>
  <!-- Owl Eyes - dark mask -->
  <path d="M30 30c0-2 1.5-4 4-5 1.5-.6 3-.6 4 0 .8.5 1.5 1.2 2 2 .5-.8 1.2-1.5 2-2 1-.6 2.5-.6 4 0 2.5 1 4 3 4 5 0 2.5-2 4.5-5 5-1.5.3-3 0-4-1-.5-.5-.8-1-.8-1.5 0 .5-.3 1-.8 1.5-1 1-2.5 1.3-4 1-3-.5-5-2.5-5-5z" fill="#13131A"/>
  <!-- Eye glows -->
  <ellipse cx="34.5" cy="30.5" rx="2" ry="2.2" fill="#FFC66B" opacity="0.95"/>
  <ellipse cx="45.5" cy="30.5" rx="2" ry="2.2" fill="#FFC66B" opacity="0.95"/>
  <!-- Eye inner dots -->
  <circle cx="35" cy="30" r="0.6" fill="#13131A"/>
  <circle cx="46" cy="30" r="0.6" fill="#13131A"/>
  <!-- Beak -->
  <path d="M38.5 35.5L40 38.5 41.5 35.5" stroke="#13131A" stroke-width="1.3" stroke-linecap="round" stroke-linejoin="round"/>
  <!-- Crown on top -->
  <path d="M32 14l3-5 5 3 5-3 3 5" stroke="#FFC66B" stroke-width="1.5" stroke-linecap="round" stroke-linejoin="round" fill="none"/>
  <circle cx="35" cy="9" r="1" fill="#FFC66B"/>
  <circle cx="40" cy="12" r="1" fill="#FFC66B"/>
  <circle cx="45" cy="9" r="1" fill="#FFC66B"/>
</svg>
